PathFileType	4	(X/Y/Z)	..\data\2014019\dynamic\2014019_C5_03.trc
DataRate	CameraRate	NumFrames	NumMarkers	Units	OrigDataRate	OrigDataStartFrame	OrigNumFrames
100.000000	100.000000	4	52	mm	100.000000	88	142
Frame#	Time	L_IAS			L_IPS			R_IPS			R_IAS			L_FTC			L_FLE			L_FME			L_FAX			L_TTC			L_FAL			L_TAM			L_FCC			L_FM1			L_FM2			L_FM5			R_FTC			R_FLE			R_FME			R_FAX			R_TTC			R_FAL			R_TAM			R_FCC			R_FM1			R_FM2			R_FM5			CV7			TV10			SXS			SJN			L_SIA			L_SRS			L_SAA			L_SAE			L_HLE			L_HME			L_UOA			L_RSP			L_UHE			L_HM2			L_HM5			R_SIA			R_SRS			R_SAA			R_SAE			R_HLE			R_HME			R_UOA			R_RSP			R_UHE			R_HM2			R_HM5			
		X1	Y1	Z1	X2	Y2	Z2	X3	Y3	Z3	X4	Y4	Z4	X5	Y5	Z5	X6	Y6	Z6	X7	Y7	Z7	X8	Y8	Z8	X9	Y9	Z9	X10	Y10	Z10	X11	Y11	Z11	X12	Y12	Z12	X13	Y13	Z13	X14	Y14	Z14	X15	Y15	Z15	X16	Y16	Z16	X17	Y17	Z17	X18	Y18	Z18	X19	Y19	Z19	X20	Y20	Z20	X21	Y21	Z21	X22	Y22	Z22	X23	Y23	Z23	X24	Y24	Z24	X25	Y25	Z25	X26	Y26	Z26	X27	Y27	Z27	X28	Y28	Z28	X29	Y29	Z29	X30	Y30	Z30	X31	Y31	Z31	X32	Y32	Z32	X33	Y33	Z33	X34	Y34	Z34	X35	Y35	Z35	X36	Y36	Z36	X37	Y37	Z37	X38	Y38	Z38	X39	Y39	Z39	X40	Y40	Z40	X41	Y41	Z41	X42	Y42	Z42	X43	Y43	Z43	X44	Y44	Z44	X45	Y45	Z45	X46	Y46	Z46	X47	Y47	Z47	X48	Y48	Z48	X49	Y49	Z49	X50	Y50	Z50	X51	Y51	Z51	X52	Y52	Z52	

89	0.88	194.6180267333985	908.0140380859377	132.8271026611329	-21.194787979126	962.5228271484377	175.4044952392578	-33.42554473876957	968.3825683593752	266.8691711425782	163.1126708984375	911.2385253906252	368.4009704589844	127.0959243774414	843.1472167968752	36.86592864990237	286.3232421875001	467.3223571777345	95.57714080810551	284.4527282714844	449.0737304687501	231.8566894531251	286.1844787597657	408.0584411621095	93.55955505371098	348.2003479003907	419.6902160644532	136.6184692382813	420.0253295898439	76.81504821777345	132.5997924804688	449.0691528320314	120.461410522461	213.7068176269532	408.6841430664064	21.53683090209961	184.8604278564454	579.7958374023439	115.3566436767578	197.9352416992189	576.3389892578126	126.2174987792969	142.1612854003907	552.5790405273439	87.68626403808595	100.7009963989259	30.58355522155757	853.7233886718752	430.9561767578126	-43.65747833251958	450.3045043945314	356.3424377441407	-39.95330047607425	449.8998107910157	219.2189025878907	-88.58219146728521	402.3084411621095	353.5718078613282	-35.93624114990239	368.3890991210938	299.5854492187501	-245.2947082519532	95.49769592285158	291.2687683105469	-217.7801055908204	106.5453872680664	201.4942626953125	-298.4889221191407	65.45383453369142	233.5961456298828	-104.6308212280274	23.59039306640625	211.3330688476563	-91.98089599609379	34.82370376586915	267.3519897460938	-143.0495147705079	21.11306381225586	321.4410400390626	26.29631614685056	1447.873291015625	249.1754608154297	-41.36568069458011	1234.84033203125	251.4980926513672	186.72216796875	1128.307373046875	237.8221893310548	149.6836700439453	1358.843017578125	239.896224975586	-54.9616622924805	1268.25830078125	182.9429321289063	-14.61365985870363	1394.518920898438	146.9259490966797	12.00400733947753	1389.26513671875	82.7860794067383	57.41331481933594	1401.867065429688	62.63435363769533	-80.55764007568361	1096.781494140625	26.35181045532226	-85.54521942138675	1096.832153320313	95.30997467041016	-100.5494537353516	1078.53955078125	69.20530700683594	-42.52022933959962	844.2319335937502	-9.532103538513191	-111.0107955932617	863.9077148437502	-20.46166992187502	-45.70319366455078	760.4213867187501	-41.98138427734376	-141.8723754882813	783.8389282226565	-23.31841659545901	-44.34280395507817	1268.573486328125	333.2932434082032	-0.6838928461075265	1397.84912109375	355.4746398925782	46.04005050659175	1403.707763671875	413.6936340332032	84.26653289794918	1422.111450195313	411.8434143066407	114.5799865722656	1099.479736328125	514.5216064453126	76.51930999755855	1076.291870117188	448.8913879394532	87.78957366943355	1053.94091796875	488.1926574707032	327.9715881347656	961.6866455078127	481.5118408203127	284.0657348632812	926.6169433593752	525.0427246093751	404.2115173339844	906.1543579101565	495.1634521484377	322.2011108398438	850.1897583007815	512.7263183593751	
90	0.89	214.4441528320313	906.607849121094	132.7833404541016	-1.632145524024985	961.1123046875002	173.7736968994141	-14.43949604034427	967.4709472656252	264.9923400878907	181.3660583496093	909.6785278320315	368.5613403320313	146.7389526367188	841.485534667969	36.30335617065433	305.3142700195313	465.3135375976564	96.85013580322273	300.344970703125	446.3575439453126	233.0711059570313	305.5658874511719	406.1056213378907	94.62734222412115	366.6107788085938	418.1619567871095	139.0339660644532	442.2827148437501	76.04785156250001	134.8925018310548	468.714813232422	119.7286911010742	216.9320526123048	429.9747314453126	20.65089988708496	186.3347930908204	599.7651367187501	116.4361801147461	204.8909149169923	598.0675048828126	126.8401031494141	149.0817871093751	575.9130859375001	88.02050781250001	107.0221710205079	47.84491729736324	853.3469238281252	429.8892822265626	-30.23267173767095	450.4461975097657	356.7318725585938	-24.27110862731937	448.7829895019532	219.4756011962891	-76.44439697265631	403.5277099609376	353.8350219726563	-24.07070350646977	367.4392700195313	300.7951965332032	-242.4446716308595	101.1076049804688	292.4178161621094	-213.7542419433595	111.0935516357422	202.9183502197266	-296.2842407226564	73.26200103759767	234.2640533447266	-104.6314926147462	23.45757865905762	211.4808807373047	-91.81498718261723	34.40234756469727	267.2918395996094	-143.178695678711	20.62222671508789	321.2745666503907	43.65226745605467	1445.829956054688	248.6851196289063	-23.23500823974613	1232.588500976563	250.8778533935547	205.4761352539063	1126.67236328125	238.2958984375001	167.3820648193359	1356.98876953125	240.2329254150391	-36.58623504638675	1265.77001953125	182.5519256591797	3.421611309051497	1392.098388671875	146.6616363525391	30.41615486145019	1387.20654296875	82.72007751464845	75.60377502441406	1399.897094726563	62.5907783508301	-64.3325653076172	1096.570678710938	27.85324668884277	-68.62933349609378	1096.36865234375	96.95079040527345	-84.11683654785159	1078.89013671875	71.01408386230469	-37.20852661132813	843.0950317382815	-9.592260360717781	-105.2303466796875	865.6380004882815	-18.53228759765627	-45.14219284057617	759.3579711914064	-42.18151473999025	-139.6933288574219	787.0073242187502	-20.64719390869143	-26.42228698730473	1266.229125976563	332.7531738281251	16.23983955383297	1395.790161132813	354.9369812011719	62.74394989013668	1402.153198242188	413.2415161132814	100.8295059204101	1420.947631835938	411.356658935547	133.3556213378906	1098.567749023438	514.0951538085939	96.16918182373044	1074.856567382813	448.0479431152345	107.8843688964843	1052.28466796875	487.3795166015626	351.3012390136719	968.2709960937502	481.5510559082033	308.3953857421875	931.4646606445315	524.6192626953126	429.2504272460938	915.262878417969	495.2088012695314	349.1489868164062	856.5408325195315	512.0559692382814	
91	0.9	234.5249633789063	905.5532836914065	132.6237792968751	18.24001121520994	959.9832763671877	172.3246154785157	4.923545837402313	966.7274169921877	263.4035644531251	200.1401214599609	908.2073974609377	368.4508361816407	166.6276397705078	840.2985839843752	35.6525688171387	324.7482604980469	463.8349914550782	98.17259216308601	316.6116333007812	444.1634521484376	234.1538391113282	324.8776245117188	404.5214843750001	95.67133331298834	384.8682250976564	416.5331420898439	141.5477905273438	460.8610839843751	74.7821731567383	137.1712646484376	485.0494384765626	118.0187377929688	220.1963195800782	446.9986877441407	19.56131744384766	187.7372131347657	616.1919555664064	115.0638046264649	211.8541107177736	616.4041137695314	125.0861968994141	156.0231170654298	595.4644775390626	86.34393310546876	113.408187866211	65.80740356445308	852.915222167969	428.8635253906251	-15.81827831268315	450.550018310547	357.3052978515626	-7.617619991302519	447.4357299804689	219.9888610839844	-63.32356262207037	404.8357238769532	354.3819274902344	-11.2679653167725	366.4287414550782	302.3458251953126	-238.7793121337891	107.2889480590821	293.9705505371094	-208.9285583496095	116.0277786254883	204.8351135253907	-293.1942443847657	81.95845031738283	235.3693084716797	-104.9120864868165	23.39396858215332	211.6052703857422	-91.89073944091801	33.89558792114259	267.1843261718751	-143.4161987304688	20.15681266784668	321.1298828125001	61.17383575439452	1444.025268554688	247.9918670654297	-4.899450302124055	1230.561157226563	250.2029418945313	224.4921569824219	1125.532470703125	238.6916656494141	185.2343597412109	1355.460693359375	240.438446044922	-17.98979949951174	1263.544555664063	181.9721221923828	21.75823020935057	1389.935302734375	146.092529296875	49.21876525878907	1385.306518554688	82.34030914306642	94.23320007324219	1398.045043945313	62.30943679809573	-47.51952362060548	1096.393920898438	29.22982025146484	-51.20003509521487	1095.995727539063	98.45034027099612	-67.09011077880862	1079.30029296875	72.69272613525391	-30.84513854980469	842.4626464843752	-9.433023452758794	-98.24616241455081	867.741149902344	-16.58515357971193	-43.33480072021484	758.9630737304689	-42.03199005126955	-136.1085052490235	790.6636352539065	-17.97521781921389	-8.33465385437016	1264.074951171875	331.9293212890626	33.23984527587887	1393.983764648438	354.1733703613282	79.4624862670898	1400.816772460938	412.6298828125001	117.4132766723633	1419.9775390625	410.7820739746095	151.5972442626953	1097.771606445313	513.4623413085939	115.2986984252929	1073.687255859375	447.0244140625001	127.4232177734375	1050.852294921875	486.3564758300782	373.6548767089844	974.6826782226565	481.5919799804689	331.7058715820312	936.2293701171877	524.1323852539064	453.1235046386719	924.2790527343752	495.4009704589845	375.0239868164062	862.8699340820315	511.3381347656252	
92	0.91	254.8317565917969	904.8847656250002	132.3499755859376	38.36859893798827	959.1411743164065	171.0875091552735	24.62143135070798	966.0888671875002	262.1415710449219	219.4039459228516	906.7717895507815	368.0675048828126	186.8270568847657	839.6898193359377	34.90505218505862	344.5120849609376	462.8862609863282	99.4909973144532	333.1994323730469	442.5186767578126	235.0684356689454	344.0671081542969	403.3177490234376	96.64879608154304	402.9339904785157	414.8628845214845	144.073471069336	476.0368652343751	73.04538726806642	139.3468780517579	498.3888244628907	115.4290084838867	223.3836822509767	460.0903625488282	18.29636001586914	189.0122070312501	629.4376831054689	111.3425979614258	218.5818939208986	631.6373291015626	121.0549621582032	162.7410736083986	611.4821166992189	82.7280731201172	119.6211471557618	84.4513778686523	852.338806152344	427.887420654297	-0.3121187090874157	450.5343627929689	358.0585632324219	10.10527324676511	445.7811584472657	220.7781372070313	-49.10219955444342	406.1669311523439	355.2181396484376	2.587718486785852	365.3073425292969	304.2383728027344	-234.1123657226563	114.0123062133789	295.9430236816406	-203.1518707275391	121.3079223632813	207.2525482177735	-288.974334716797	91.55085754394533	236.9358825683594	-105.467643737793	23.50528526306153	211.7286987304688	-92.23738861083989	33.35091400146485	267.0652160644532	-143.7566375732422	19.85172462463379	321.0284423828126	78.89064788818358	1442.490356445313	247.1069030761719	13.62804603576657	1228.80078125	249.4996948242188	243.7475128173828	1124.87255859375	239.0232391357423	203.2632446289063	1354.275390625	240.5047302246095	0.8259879946708459	1261.616088867188	181.2197570800782	40.40449142456053	1388.0634765625	145.218002319336	68.403076171875	1383.5732421875	81.64847564697268	113.3046646118164	1396.322509765625	61.78935623168948	-30.12961006164552	1096.23876953125	30.45950889587403	-33.28162384033205	1095.708374023438	99.78386688232425	-49.48184204101565	1079.751342773438	74.21604156494142	-23.33512306213379	842.264587402344	-9.087792396545415	-89.9918670654297	870.115905761719	-14.66013717651369	-40.1307487487793	759.1445922851564	-41.58965301513673	-131.0234527587891	794.6753540039065	-15.36325263977053	9.915492057800254	1262.159912109375	330.8451538085938	50.35169982910153	1392.465087890625	353.1969604492188	96.23683166503903	1399.715576171875	411.8723144531251	134.0636444091797	1419.2060546875	410.1369934082032	169.3285827636718	1097.093872070313	512.6680297851564	133.8877716064453	1072.7734375	445.8870849609376	146.394790649414	1049.645141601563	485.1835021972657	395.0206604003907	980.7902832031252	481.6264038085939	353.9915161132812	940.787536621094	523.5982055664064	475.8270568847657	933.1013183593752	495.726776123047	399.8396301269532	869.0335693359377	510.5928955078127	
